<svg width="574" height="116" viewBox="0 0 574 116" fill="none" xmlns="http://www.w3.org/2000/svg">
<path d="M43.9432 43.2614C43.6705 40.5114 42.5 38.375 40.4318 36.8523C38.3636 35.3295 35.5568 34.5682 32.0114 34.5682C29.6023 34.5682 27.5682 34.9091 25.9091 35.5909C24.25 36.25 22.9773 37.1705 22.0909 38.3523C21.2273 39.5341 20.7955 40.875 20.7955 42.375C20.75 43.625 21.0114 44.7159 21.5795 45.6477C22.1705 46.5795 22.9773 47.3864 24 48.0682C25.0227 48.7273 26.2045 49.3068 27.5455 49.8068C28.8864 50.2841 30.3182 50.6932 31.8409 51.0341L38.1136 52.5341C41.1591 53.2159 43.9545 54.125 46.5 55.2614C49.0455 56.3977 51.25 57.7955 53.1136 59.4545C54.9773 61.1136 56.4205 63.0682 57.4432 65.3182C58.4886 67.5682 59.0227 70.1477 59.0455 73.0568C59.0227 77.3295 57.9318 81.0341 55.7727 84.1705C53.6364 87.2841 50.5455 89.7045 46.5 91.4318C42.4773 93.1364 37.625 93.9886 31.9432 93.9886C26.3068 93.9886 21.3977 93.125 17.2159 91.3977C13.0568 89.6705 9.80682 87.1136 7.46591 83.7273C5.14773 80.3182 3.93182 76.1023 3.81818 71.0795H18.1023C18.2614 73.4205 18.9318 75.375 20.1136 76.9432C21.3182 78.4886 22.9205 79.6591 24.9205 80.4545C26.9432 81.2273 29.2273 81.6136 31.7727 81.6136C34.2727 81.6136 36.4432 81.25 38.2841 80.5227C40.1477 79.7955 41.5909 78.7841 42.6136 77.4886C43.6364 76.1932 44.1477 74.7045 44.1477 73.0227C44.1477 71.4545 43.6818 70.1364 42.75 69.0682C41.8409 68 40.5 67.0909 38.7273 66.3409C36.9773 65.5909 34.8295 64.9091 32.2841 64.2955L24.6818 62.3864C18.7955 60.9545 14.1477 58.7159 10.7386 55.6705C7.32955 52.625 5.63636 48.5227 5.65909 43.3636C5.63636 39.1364 6.76136 35.4432 9.03409 32.2841C11.3295 29.125 14.4773 26.6591 18.4773 24.8864C22.4773 23.1136 27.0227 22.2273 32.1136 22.2273C37.2955 22.2273 41.8182 23.1136 45.6818 24.8864C49.5682 26.6591 52.5909 29.125 54.75 32.2841C56.9091 35.4432 58.0227 39.1023 58.0909 43.2614H43.9432ZM68.9744 93V23.1818H116.02V35.3523H83.7358V51.9886H113.599V64.1591H83.7358V80.8295H116.156V93H68.9744ZM127.756 23.1818H145.96L165.188 70.0909H166.006L185.233 23.1818H203.438V93H189.119V47.5568H188.54L170.472 92.6591H160.722L142.653 47.3864H142.074V93H127.756V23.1818Z" fill="white"/>
<path d="M232.773 94.2273C229.455 94.2273 226.443 93.6023 223.739 92.3523C221.034 91.0795 218.886 89.25 217.295 86.8636C215.705 84.4545 214.909 81.5455 214.909 78.1364C214.909 75.1364 215.5 72.7045 216.682 70.8409C217.864 68.9545 219.443 67.4773 221.42 66.4091C223.398 65.3409 225.58 64.5455 227.966 64.0227C230.375 63.4773 232.795 63.0455 235.227 62.7273C238.409 62.3182 240.989 62.0114 242.966 61.8068C244.966 61.5795 246.42 61.2045 247.33 60.6818C248.261 60.1591 248.727 59.25 248.727 57.9545V57.6818C248.727 54.3182 247.807 51.7045 245.966 49.8409C244.148 47.9773 241.386 47.0455 237.682 47.0455C233.841 47.0455 230.83 47.8864 228.648 49.5682C226.466 51.25 224.932 53.0455 224.045 54.9545L216.409 52.2273C217.773 49.0455 219.591 46.5682 221.864 44.7955C224.159 43 226.659 41.75 229.364 41.0455C232.091 40.3182 234.773 39.9545 237.409 39.9545C239.091 39.9545 241.023 40.1591 243.205 40.5682C245.409 40.9545 247.534 41.7614 249.58 42.9886C251.648 44.2159 253.364 46.0682 254.727 48.5455C256.091 51.0227 256.773 54.3409 256.773 58.5V93H248.727V85.9091H248.318C247.773 87.0455 246.864 88.2614 245.591 89.5568C244.318 90.8523 242.625 91.9545 240.511 92.8636C238.398 93.7727 235.818 94.2273 232.773 94.2273ZM234 87C237.182 87 239.864 86.375 242.045 85.125C244.25 83.875 245.909 82.2614 247.023 80.2841C248.159 78.3068 248.727 76.2273 248.727 74.0455V66.6818C248.386 67.0909 247.636 67.4659 246.477 67.8068C245.341 68.125 244.023 68.4091 242.523 68.6591C241.045 68.8864 239.602 69.0909 238.193 69.2727C236.807 69.4318 235.682 69.5682 234.818 69.6818C232.727 69.9545 230.773 70.3977 228.955 71.0114C227.159 71.6023 225.705 72.5 224.591 73.7045C223.5 74.8864 222.955 76.5 222.955 78.5455C222.955 81.3409 223.989 83.4545 226.057 84.8864C228.148 86.2955 230.795 87 234 87ZM279.503 61.5V93H271.457V40.6364H279.23V48.8182H279.912C281.139 46.1591 283.003 44.0227 285.503 42.4091C288.003 40.7727 291.23 39.9545 295.185 39.9545C298.73 39.9545 301.832 40.6818 304.491 42.1364C307.151 43.5682 309.219 45.75 310.696 48.6818C312.173 51.5909 312.912 55.2727 312.912 59.7273V93H304.866V60.2727C304.866 56.1591 303.798 52.9545 301.662 50.6591C299.526 48.3409 296.594 47.1818 292.866 47.1818C290.298 47.1818 288.003 47.7386 285.98 48.8523C283.98 49.9659 282.401 51.5909 281.241 53.7273C280.082 55.8636 279.503 58.4545 279.503 61.5ZM343.023 94.2273C339.705 94.2273 336.693 93.6023 333.989 92.3523C331.284 91.0795 329.136 89.25 327.545 86.8636C325.955 84.4545 325.159 81.5455 325.159 78.1364C325.159 75.1364 325.75 72.7045 326.932 70.8409C328.114 68.9545 329.693 67.4773 331.67 66.4091C333.648 65.3409 335.83 64.5455 338.216 64.0227C340.625 63.4773 343.045 63.0455 345.477 62.7273C348.659 62.3182 351.239 62.0114 353.216 61.8068C355.216 61.5795 356.67 61.2045 357.58 60.6818C358.511 60.1591 358.977 59.25 358.977 57.9545V57.6818C358.977 54.3182 358.057 51.7045 356.216 49.8409C354.398 47.9773 351.636 47.0455 347.932 47.0455C344.091 47.0455 341.08 47.8864 338.898 49.5682C336.716 51.25 335.182 53.0455 334.295 54.9545L326.659 52.2273C328.023 49.0455 329.841 46.5682 332.114 44.7955C334.409 43 336.909 41.75 339.614 41.0455C342.341 40.3182 345.023 39.9545 347.659 39.9545C349.341 39.9545 351.273 40.1591 353.455 40.5682C355.659 40.9545 357.784 41.7614 359.83 42.9886C361.898 44.2159 363.614 46.0682 364.977 48.5455C366.341 51.0227 367.023 54.3409 367.023 58.5V93H358.977V85.9091H358.568C358.023 87.0455 357.114 88.2614 355.841 89.5568C354.568 90.8523 352.875 91.9545 350.761 92.8636C348.648 93.7727 346.068 94.2273 343.023 94.2273ZM344.25 87C347.432 87 350.114 86.375 352.295 85.125C354.5 83.875 356.159 82.2614 357.273 80.2841C358.409 78.3068 358.977 76.2273 358.977 74.0455V66.6818C358.636 67.0909 357.886 67.4659 356.727 67.8068C355.591 68.125 354.273 68.4091 352.773 68.6591C351.295 68.8864 349.852 69.0909 348.443 69.2727C347.057 69.4318 345.932 69.5682 345.068 69.6818C342.977 69.9545 341.023 70.3977 339.205 71.0114C337.409 71.6023 335.955 72.5 334.841 73.7045C333.75 74.8864 333.205 76.5 333.205 78.5455C333.205 81.3409 334.239 83.4545 336.307 84.8864C338.398 86.2955 341.045 87 344.25 87ZM389.753 23.1818V93H381.707V23.1818H389.753ZM409.67 112.636C408.307 112.636 407.091 112.523 406.023 112.295C404.955 112.091 404.216 111.886 403.807 111.682L405.852 104.591C407.807 105.091 409.534 105.273 411.034 105.136C412.534 105 413.864 104.33 415.023 103.125C416.205 101.943 417.284 100.023 418.261 97.3636L419.761 93.2727L400.398 40.6364H409.125L423.58 82.3636H424.125L438.58 40.6364H447.307L425.08 100.636C424.08 103.341 422.841 105.58 421.364 107.352C419.886 109.148 418.17 110.477 416.216 111.341C414.284 112.205 412.102 112.636 409.67 112.636ZM495.017 52.3636L487.79 54.4091C487.335 53.2045 486.665 52.0341 485.778 50.8977C484.915 49.7386 483.733 48.7841 482.233 48.0341C480.733 47.2841 478.812 46.9091 476.472 46.9091C473.267 46.9091 470.597 47.6477 468.46 49.125C466.347 50.5795 465.29 52.4318 465.29 54.6818C465.29 56.6818 466.017 58.2614 467.472 59.4205C468.926 60.5795 471.199 61.5455 474.29 62.3182L482.062 64.2273C486.744 65.3636 490.233 67.1023 492.528 69.4432C494.824 71.7614 495.972 74.75 495.972 78.4091C495.972 81.4091 495.108 84.0909 493.381 86.4545C491.676 88.8182 489.29 90.6818 486.222 92.0455C483.153 93.4091 479.585 94.0909 475.517 94.0909C470.176 94.0909 465.756 92.9318 462.256 90.6136C458.756 88.2955 456.54 84.9091 455.608 80.4545L463.244 78.5455C463.972 81.3636 465.347 83.4773 467.369 84.8864C469.415 86.2955 472.085 87 475.381 87C479.131 87 482.108 86.2045 484.312 84.6136C486.54 83 487.653 81.0682 487.653 78.8182C487.653 77 487.017 75.4773 485.744 74.25C484.472 73 482.517 72.0682 479.881 71.4545L471.153 69.4091C466.358 68.2727 462.835 66.5114 460.585 64.125C458.358 61.7159 457.244 58.7045 457.244 55.0909C457.244 52.1364 458.074 49.5227 459.733 47.25C461.415 44.9773 463.699 43.1932 466.585 41.8977C469.494 40.6023 472.79 39.9545 476.472 39.9545C481.653 39.9545 485.722 41.0909 488.676 43.3636C491.653 45.6364 493.767 48.6364 495.017 52.3636ZM508.082 93V40.6364H516.128V93H508.082ZM512.173 31.9091C510.605 31.9091 509.253 31.375 508.116 30.3068C507.003 29.2386 506.446 27.9545 506.446 26.4545C506.446 24.9545 507.003 23.6705 508.116 22.6023C509.253 21.5341 510.605 21 512.173 21C513.741 21 515.082 21.5341 516.196 22.6023C517.332 23.6705 517.901 24.9545 517.901 26.4545C517.901 27.9545 517.332 29.2386 516.196 30.3068C515.082 31.375 513.741 31.9091 512.173 31.9091ZM567.955 52.3636L560.727 54.4091C560.273 53.2045 559.602 52.0341 558.716 50.8977C557.852 49.7386 556.67 48.7841 555.17 48.0341C553.67 47.2841 551.75 46.9091 549.409 46.9091C546.205 46.9091 543.534 47.6477 541.398 49.125C539.284 50.5795 538.227 52.4318 538.227 54.6818C538.227 56.6818 538.955 58.2614 540.409 59.4205C541.864 60.5795 544.136 61.5455 547.227 62.3182L555 64.2273C559.682 65.3636 563.17 67.1023 565.466 69.4432C567.761 71.7614 568.909 74.75 568.909 78.4091C568.909 81.4091 568.045 84.0909 566.318 86.4545C564.614 88.8182 562.227 90.6818 559.159 92.0455C556.091 93.4091 552.523 94.0909 548.455 94.0909C543.114 94.0909 538.693 92.9318 535.193 90.6136C531.693 88.2955 529.477 84.9091 528.545 80.4545L536.182 78.5455C536.909 81.3636 538.284 83.4773 540.307 84.8864C542.352 86.2955 545.023 87 548.318 87C552.068 87 555.045 86.2045 557.25 84.6136C559.477 83 560.591 81.0682 560.591 78.8182C560.591 77 559.955 75.4773 558.682 74.25C557.409 73 555.455 72.0682 552.818 71.4545L544.091 69.4091C539.295 68.2727 535.773 66.5114 533.523 64.125C531.295 61.7159 530.182 58.7045 530.182 55.0909C530.182 52.1364 531.011 49.5227 532.67 47.25C534.352 44.9773 536.636 43.1932 539.523 41.8977C542.432 40.6023 545.727 39.9545 549.409 39.9545C554.591 39.9545 558.659 41.0909 561.614 43.3636C564.591 45.6364 566.705 48.6364 567.955 52.3636Z" fill="white"/>
</svg>
